<?xml version="1.0" encoding="utf-8"?>
<svg viewBox="0 0 160 60" xmlns="http://www.w3.org/2000/svg">
  <rect width="160" height="60" style="fill: rgb(216, 216, 216);"/>
  <g transform="matrix(0.087912, 0, 0, 0.087912, 16.229439, 8.849627)"/>
  <g transform="matrix(0.087912, 0, 0, 0.087912, 16.229439, 8.849627)"/>
  <g transform="matrix(0.087912, 0, 0, 0.087912, 16.229439, 8.849627)"/>
  <g transform="matrix(0.087912, 0, 0, 0.087912, 16.229439, 8.849627)"/>
  <g transform="matrix(0.087912, 0, 0, 0.087912, 16.229439, 8.849627)"/>
  <g transform="matrix(0.087912, 0, 0, 0.087912, 16.229439, 8.849627)"/>
  <g transform="matrix(0.087912, 0, 0, 0.087912, 16.229439, 8.849627)"/>
  <g transform="matrix(0.087912, 0, 0, 0.087912, 16.229439, 8.849627)"/>
  <g transform="matrix(0.087912, 0, 0, 0.087912, 16.229439, 8.849627)"/>
  <g transform="matrix(0.087912, 0, 0, 0.087912, 16.229439, 8.849627)"/>
  <g transform="matrix(0.087912, 0, 0, 0.087912, 16.229439, 8.849627)"/>
  <g transform="matrix(0.087912, 0, 0, 0.087912, 16.229439, 8.849627)"/>
  <g transform="matrix(0.087912, 0, 0, 0.087912, 16.229439, 8.849627)"/>
  <g transform="matrix(0.087912, 0, 0, 0.087912, 16.229439, 8.849627)"/>
  <g transform="matrix(0.087912, 0, 0, 0.087912, 16.229439, 8.849627)"/>
  <g transform="matrix(0.078125, 0, 0, 0.078125, 60, 9.999998)">
    <path d="m256 120c24.813 0 45-20.187 45-45v-30c0-24.813-20.187-45-45-45s-45 20.187-45 45v30c0 24.813 20.187 45 45 45z"/>
    <path d="m417 392c24.813 0 45-20.187 45-45v-30c0-24.813-20.187-45-45-45s-45 20.187-45 45v30c0 24.813 20.187 45 45 45z"/>
    <path d="m176 240h160c8.284 0 15-6.716 15-15v-30c0-29.634-15.253-55.76-38.311-70.978-13.762 15.893-34.064 25.978-56.689 25.978s-42.927-10.085-56.689-25.978c-23.058 15.218-38.311 41.344-38.311 70.978v30c0 8.284 6.716 15 15 15z"/>
    <path d="m335.573 376.942-35.773-29.655c.776-3.307 1.2-6.747 1.2-10.287 0-19.555-12.541-36.228-30-42.42v-24.58h-30v24.58c-17.459 6.192-30 22.865-30 42.42 0 3.54.424 6.981 1.2 10.288l-35.772 29.654c7.98 6.326 14.999 13.6 20.946 21.604l31.226-25.886c7.594 5.85 17.095 9.34 27.4 9.34s19.805-3.49 27.4-9.339l31.226 25.885c5.947-8.004 12.966-15.278 20.947-21.604z"/>
    <path d="m473.689 396.022c-13.762 15.893-34.064 25.978-56.689 25.978s-42.927-10.085-56.689-25.978c-23.058 15.218-38.311 41.344-38.311 70.978v30c0 8.284 6.716 15 15 15h160c8.284 0 15-6.716 15-15v-30c0-29.634-15.253-55.76-38.311-70.978z"/>
    <path d="m151.689 396.022c-13.762 15.893-34.064 25.978-56.689 25.978s-42.927-10.085-56.689-25.978c-23.058 15.218-38.311 41.344-38.311 70.978v30c0 8.284 6.716 15 15 15h160c8.284 0 15-6.716 15-15v-30c0-29.634-15.253-55.76-38.311-70.978z"/>
    <path d="m95 392c24.813 0 45-20.187 45-45v-30c0-24.813-20.187-45-45-45s-45 20.187-45 45v30c0 24.813 20.187 45 45 45z"/>
  </g>
</svg>