<?xml version="1.0" encoding="utf-8"?>
<svg viewBox="0 0 160 60" xmlns="http://www.w3.org/2000/svg">
  <rect width="160" height="60" style="fill: rgb(216, 216, 216);"/>
  <path style="fill-rule:evenodd;clip-rule:evenodd;" d="M 60 10 L 60 50 L 100 50 L 100 10 L 60 10 Z M 93.846 20.386 C 93.846 20.555 93.709 20.691 93.54 20.691 L 92.685 20.691 C 92.373 20.691 92.092 20.88 91.974 21.169 L 84.166 40.326 L 80.234 31.499 L 76.026 40.326 L 67.974 21.162 C 67.855 20.877 67.576 20.692 67.267 20.692 L 66.46 20.692 C 66.291 20.692 66.154 20.555 66.154 20.386 L 66.154 19.674 L 73.112 19.674 L 73.092 20.394 C 73.088 20.56 72.952 20.692 72.787 20.692 L 71.622 20.692 C 71.189 20.692 70.892 21.129 71.051 21.531 L 76.704 35.832 L 79.563 29.636 L 75.95 21.158 C 75.829 20.876 75.552 20.691 75.244 20.691 L 74.682 20.691 C 74.513 20.691 74.376 20.555 74.376 20.386 L 74.376 19.674 L 79.601 19.674 L 79.601 20.386 C 79.601 20.555 79.464 20.691 79.296 20.691 C 78.855 20.691 78.557 21.143 78.731 21.548 L 80.866 26.521 L 83.047 21.553 C 83.224 21.147 82.927 20.692 82.484 20.692 L 81.668 20.692 C 81.498 20.692 81.362 20.555 81.362 20.386 L 81.362 19.674 L 86.834 19.674 L 86.834 20.386 C 86.834 20.555 86.697 20.692 86.528 20.692 L 85.617 20.692 C 85.32 20.692 85.048 20.865 84.922 21.134 L 81.554 28.336 L 84.699 35.726 L 90.201 21.525 C 90.354 21.123 90.057 20.692 89.627 20.692 L 88.267 20.692 C 88.099 20.692 87.961 20.555 87.961 20.386 L 87.961 19.674 L 93.846 19.674 L 93.846 20.386 Z"/>
  <g transform="matrix(0.087912, 0, 0, 0.087912, 16.229439, 8.849627)"/>
  <g transform="matrix(0.087912, 0, 0, 0.087912, 16.229439, 8.849627)"/>
  <g transform="matrix(0.087912, 0, 0, 0.087912, 16.229439, 8.849627)"/>
  <g transform="matrix(0.087912, 0, 0, 0.087912, 16.229439, 8.849627)"/>
  <g transform="matrix(0.087912, 0, 0, 0.087912, 16.229439, 8.849627)"/>
  <g transform="matrix(0.087912, 0, 0, 0.087912, 16.229439, 8.849627)"/>
  <g transform="matrix(0.087912, 0, 0, 0.087912, 16.229439, 8.849627)"/>
  <g transform="matrix(0.087912, 0, 0, 0.087912, 16.229439, 8.849627)"/>
  <g transform="matrix(0.087912, 0, 0, 0.087912, 16.229439, 8.849627)"/>
  <g transform="matrix(0.087912, 0, 0, 0.087912, 16.229439, 8.849627)"/>
  <g transform="matrix(0.087912, 0, 0, 0.087912, 16.229439, 8.849627)"/>
  <g transform="matrix(0.087912, 0, 0, 0.087912, 16.229439, 8.849627)"/>
  <g transform="matrix(0.087912, 0, 0, 0.087912, 16.229439, 8.849627)"/>
  <g transform="matrix(0.087912, 0, 0, 0.087912, 16.229439, 8.849627)"/>
  <g transform="matrix(0.087912, 0, 0, 0.087912, 16.229439, 8.849627)"/>
</svg>